<svg width="24" height="24" viewBox="0 0 24 24" xmlns="http://www.w3.org/2000/svg">
  <path d="M3.89 15.672L6.255 2.88C6.29 2.742 6.367 2.615 6.477 2.518C6.867 2.187 7.468 2.351 7.646 2.84L10.05 9.15L3.89 15.672ZM16.895 15.419L15.108 6.619C15.077 6.473 14.993 6.342 14.871 6.254C14.482 5.984 13.929 6.178 13.811 6.636L10.052 15.359L16.895 15.419ZM12.336 18.361L11.541 17.47L10.132 15.891L5.388 20.378L17.942 19.908C18.093 19.9 18.236 19.846 18.348 19.75C18.687 19.452 18.637 18.918 18.249 18.683L12.336 18.361Z" fill="#FFCA28"/>
</svg>